<?xml version="1.0" encoding="UTF-8" ?>
<!DOCTYPE svg PUBLIC "-//W3C//DTD SVG 1.1//EN" "http://www.w3.org/Graphics/SVG/1.1/DTD/svg11.dtd">
<svg width="854pt" height="889pt" viewBox="0 0 854 889" version="1.1" xmlns="http://www.w3.org/2000/svg">
<g id="#55ff55ff">
<path fill="#55ff55" opacity="1.00" d=" M 345.51 0.00 L 508.55 0.00 C 535.72 47.13 562.96 94.21 590.15 141.32 C 563.01 188.47 535.71 235.53 508.57 282.68 C 454.19 282.66 399.81 282.66 345.43 282.68 C 318.29 235.53 291.00 188.47 263.85 141.34 C 291.06 94.22 318.24 47.08 345.51 0.00 Z" />
<path fill="#55ff55" opacity="1.00" d=" M 609.48 151.35 C 663.83 151.32 718.17 151.32 772.52 151.35 C 799.71 198.38 826.91 245.40 854.00 292.49 L 854.00 293.09 C 826.78 340.01 799.66 386.98 772.61 434.00 C 718.20 434.00 663.80 434.00 609.39 434.00 C 582.29 386.88 555.09 339.82 527.85 292.79 C 554.95 245.58 582.25 198.49 609.48 151.35 M 626.39 179.71 C 604.78 217.25 582.88 254.64 561.50 292.31 C 583.31 329.55 604.51 367.15 626.43 404.33 C 669.60 404.33 712.77 404.35 755.93 404.32 C 777.57 366.93 799.14 329.50 820.79 292.12 C 799.09 254.65 777.59 217.05 755.71 179.70 C 712.60 179.65 669.49 179.63 626.39 179.71 Z" />
<path fill="#55ff55" opacity="1.00" d=" M 0.00 292.74 C 27.18 245.71 54.27 198.62 81.55 151.65 C 135.85 151.68 190.15 151.68 244.45 151.65 C 271.78 198.72 298.94 245.89 326.15 293.03 C 298.98 340.14 271.73 387.19 244.59 434.31 C 190.21 434.37 135.83 434.31 81.45 434.34 C 54.31 387.34 27.19 340.32 0.00 293.36 L 0.00 292.74 Z" />
<path fill="#55ff55" opacity="1.00" d=" M 345.28 303.15 C 399.73 302.86 454.20 302.97 508.65 303.10 C 529.81 339.99 551.17 376.76 572.41 413.60 C 578.25 424.00 584.60 434.13 590.12 444.70 C 562.72 491.56 535.74 538.68 508.58 585.68 C 454.19 585.66 399.81 585.66 345.42 585.68 C 318.36 538.66 291.16 491.71 264.05 444.72 C 263.96 443.48 265.01 442.50 265.48 441.43 C 292.11 395.36 318.83 349.33 345.28 303.15 Z" />
<path fill="#55ff55" opacity="1.00" d=" M 609.48 454.36 C 663.83 454.32 718.17 454.32 772.52 454.35 C 799.70 501.38 826.92 548.40 854.00 595.49 L 854.00 596.09 C 826.78 643.01 799.66 689.98 772.61 737.00 C 718.20 737.00 663.80 737.00 609.39 737.00 C 582.29 689.88 555.08 642.82 527.85 595.78 C 554.95 548.58 582.25 501.49 609.48 454.36 Z" />
<path fill="#55ff55" opacity="1.00" d=" M 0.00 595.74 C 27.19 548.71 54.27 501.61 81.56 454.65 C 135.85 454.68 190.15 454.68 244.45 454.65 C 271.78 501.72 298.94 548.89 326.15 596.03 C 298.97 643.14 271.74 690.21 244.57 737.32 C 190.18 737.33 135.80 737.36 81.41 737.31 C 54.31 690.30 27.17 643.32 0.00 596.35 L 0.00 595.74 Z" />
<path fill="#55ff55" opacity="1.00" d=" M 345.36 606.08 C 399.77 605.93 454.19 605.98 508.60 606.06 C 535.74 653.15 562.94 700.22 590.15 747.27 C 563.02 794.58 535.54 841.68 508.43 889.00 L 345.45 889.00 C 339.27 877.52 332.46 866.38 326.02 855.03 C 305.31 819.12 284.53 783.25 263.85 747.32 C 291.00 700.23 318.28 653.21 345.36 606.08 Z" />
</g>
</svg>
